<svg version="1" xmlns="http://www.w3.org/2000/svg" width="346.667" height="346.667" viewBox="0 0 260.000000 260.000000"><path d="M0 130v130h260V0H0v130zm84.4-37c3.2.5 6 1.1 6.2 1.2.1.2-.3 3.7-1 7.8l-1.3 7.5-1.6-3.1c-9.7-18.7-42.5-15.2-52.1 5.5-1.7 3.8-2.1 6.5-2.1 15.1 0 9.2.3 11.1 2.4 15.3 3.1 6 11.1 13.7 18.2 17.3 6.9 3.5 21.3 4.7 25.4 2 2.5-1.6 2.5-1.9 2.5-14.5v-12.9l-2.7-2.1-2.8-2 9.8-.1c9.7 0 11.7.7 7.5 2.5-2.2 1-2.3 1.5-2.6 15.7l-.3 14.6-4 1.6c-7.9 3.2-16.6 3.7-25.1 1.6-19.1-4.8-30.4-15.6-33.8-32.5-.7-3.3-1.7-6.5-2.2-7.2-1.4-1.7-.1-8.7 2.7-14.9 4.4-10 13.4-17 24.5-19.4 5.1-1 23.5-.5 32.4 1zm131.9.6c8.2 3.2 13.8 8.2 17.7 15.8 3.2 6.2 3.5 7.8 3.8 16.7.3 7.8.1 9.9-1 9.9-.7 0-2.6 2.6-4.3 5.7-7.6 14.6-23.7 24.4-40.1 24.4-2.8 0-6.8-.7-8.9-1.5-5.6-2.4-8.5-2.1-8.2.6.2 2-.3 2.3-3.3 2.6-3.4.3-3.5.2-1-1 2.1-1.1 2.6-2.2 2.8-6.3.2-2.7.7-5.4 1.2-6 .5-.7 1.3-4.4 1.6-8.3.8-8.4 2.4-8.6 2.4-.4 0 3.1.7 7 1.5 8.6.8 1.5 1.5 3.4 1.5 4.2 0 2.9 4.3 4.4 12.6 4.4 7.1 0 8.9-.4 14.5-3.2 7.9-3.9 18-13.9 19.6-19.5 2.2-7.2 2.5-13.3 1.3-19.8-3.2-17.2-16.2-26.7-36.5-26.8-5.7-.1-8.9.4-11.3 1.7-3.3 1.7-3.3 1.7-7.5-1.4l-4.2-3.2 20.5.5c17.1.3 21.3.7 25.3 2.3zm-73.5 12c6.4 3.2 11.4 9.1 13.8 16.3 1.5 4.7 1.6 6 .4 10.5-.7 2.8-1.4 6.2-1.5 7.6-.2 3.7-2 6.4-6.6 10.4-7.6 6.4-18.7 8.2-27.6 4.4-11.2-4.8-16.3-12.5-16.3-24.4 0-11.6 4.2-19.8 12.5-24.1 8-4.2 17.8-4.5 25.3-.7z"/><path d="M121.5 108.3c-2.3 1.3-5.2 4.2-7 7.1-2.8 4.6-3 5.6-3 14 .1 9.5 1.3 13.4 5.9 18.4 2.1 2.4 6.7 5.2 8.4 5.2.5 0 1-9.6 1.1-21.2.1-11.7.4-21.5.7-21.7.2-.2.4 9.5.4 21.7 0 14.1.4 22.2 1 22.2s1-7.3 1-19.9c0-10.9.2-21.1.5-22.7.6-3.1-1.2-7-2.2-4.6-.3.9-.9 1-1.7.3-.8-.7-2.4-.3-5.1 1.2zM132.2 130.2c.4 30.4 2.1 32.5 2.8 3.6l.6-20.3.2 20.4c.2 18.1.4 20.2 1.8 19.7.9-.3 2-.6 2.4-.6 2 0 8.5-6.8 10.2-10.7 2.6-6 3.4-17.8 1.4-22.4-3.2-7.6-9.5-12.8-16.4-13.6l-3.4-.4.4 24.3z"/></svg>